<?xml version="1.0" encoding="UTF-8" standalone="no"?>
<!-- Uploaded to: SVG Repo, www.svgrepo.com, Generator: SVG Repo Mixer Tools -->

<svg
   fill="#000000"
   width="800px"
   height="800px"
   viewBox="0 0 256 256"
   id="Flat"
   version="1.1"
   sodipodi:docname="house-bold-svgrepo-com.svg"
   inkscape:version="1.3.2 (091e20ef0f, 2023-11-25)"
   xmlns:inkscape="http://www.inkscape.org/namespaces/inkscape"
   xmlns:sodipodi="http://sodipodi.sourceforge.net/DTD/sodipodi-0.dtd"
   xmlns="http://www.w3.org/2000/svg"
   xmlns:svg="http://www.w3.org/2000/svg">
  <defs
     id="defs1" />
  <sodipodi:namedview
     id="namedview1"
     pagecolor="#ffffff"
     bordercolor="#000000"
     borderopacity="0.25"
     inkscape:showpageshadow="2"
     inkscape:pageopacity="0.0"
     inkscape:pagecheckerboard="0"
     inkscape:deskcolor="#d1d1d1"
     inkscape:zoom="1.00625"
     inkscape:cx="400.49689"
     inkscape:cy="400"
     inkscape:window-width="1920"
     inkscape:window-height="1008"
     inkscape:window-x="0"
     inkscape:window-y="0"
     inkscape:window-maximized="1"
     inkscape:current-layer="Flat" />
  <path
     d="M208,227.999h-.00195l-48.00684-.00634a20.02261,20.02261,0,0,1-19.99707-20v-44.001h-24v44.001a20.02282,20.02282,0,0,1-19.99805,20l-47.99316.00634A20.00016,20.00016,0,0,1,28,207.999V115.53857a20.03619,20.03619,0,0,1,6.54687-14.79882l79.99219-72.7334a19.92168,19.92168,0,0,1,26.90821-.002l80.00683,72.73584A20.046,20.046,0,0,1,228,115.53906v92.46a20.00016,20.00016,0,0,1-20,20Zm-44.00586-24.00586L204,203.99854V117.30811L127.99414,48.21,52,117.30811v86.69043l39.99414-.00538V159.9917a20.0226,20.0226,0,0,1,20-20h32a20.0226,20.0226,0,0,1,20,20Z"
     id="path1"
     style="fill:#ffffff;fill-opacity:1" />
</svg>
