<?xml version="1.0" encoding="UTF-8" standalone="no"?>
<!-- Uploaded to: SVG Repo, www.svgrepo.com, Generator: SVG Repo Mixer Tools -->

<svg
   width="800px"
   height="800px"
   viewBox="0 0 24 24"
   fill="none"
   version="1.1"
   id="svg2"
   sodipodi:docname="pause-svgrepo-com.svg"
   inkscape:version="1.3.2 (091e20ef0f, 2023-11-25)"
   xmlns:inkscape="http://www.inkscape.org/namespaces/inkscape"
   xmlns:sodipodi="http://sodipodi.sourceforge.net/DTD/sodipodi-0.dtd"
   xmlns="http://www.w3.org/2000/svg"
   xmlns:svg="http://www.w3.org/2000/svg">
  <defs
     id="defs2" />
  <sodipodi:namedview
     id="namedview2"
     pagecolor="#ffffff"
     bordercolor="#000000"
     borderopacity="0.25"
     inkscape:showpageshadow="2"
     inkscape:pageopacity="0.0"
     inkscape:pagecheckerboard="0"
     inkscape:deskcolor="#d1d1d1"
     inkscape:zoom="1.00625"
     inkscape:cx="400.49689"
     inkscape:cy="400"
     inkscape:window-width="1920"
     inkscape:window-height="1008"
     inkscape:window-x="0"
     inkscape:window-y="0"
     inkscape:window-maximized="1"
     inkscape:current-layer="svg2" />
  <g
     id="Media / Pause"
     style="fill:none;fill-opacity:1;stroke:#ffffff;stroke-opacity:1">
    <g
       id="Vector"
       style="fill:none;fill-opacity:1;stroke:#ffffff;stroke-opacity:1">
      <path
         d="M15 5.5V18.5C15 18.9647 15 19.197 15.0384 19.3902C15.1962 20.1836 15.816 20.8041 16.6094 20.9619C16.8026 21.0003 17.0349 21.0003 17.4996 21.0003C17.9642 21.0003 18.1974 21.0003 18.3906 20.9619C19.184 20.8041 19.8041 20.1836 19.9619 19.3902C20 19.1987 20 18.9687 20 18.5122V5.48777C20 5.03125 20 4.80087 19.9619 4.60938C19.8041 3.81599 19.1836 3.19624 18.3902 3.03843C18.197 3 17.9647 3 17.5 3C17.0353 3 16.8026 3 16.6094 3.03843C15.816 3.19624 15.1962 3.81599 15.0384 4.60938C15 4.80257 15 5.03534 15 5.5Z"
         stroke="#000000"
         stroke-width="2"
         stroke-linecap="round"
         stroke-linejoin="round"
         id="path1"
         style="fill:none;fill-opacity:1;stroke:#ffffff;stroke-opacity:1" />
      <path
         d="M4 5.5V18.5C4 18.9647 4 19.197 4.03843 19.3902C4.19624 20.1836 4.81599 20.8041 5.60938 20.9619C5.80257 21.0003 6.0349 21.0003 6.49956 21.0003C6.96421 21.0003 7.19743 21.0003 7.39062 20.9619C8.18401 20.8041 8.8041 20.1836 8.96191 19.3902C9 19.1987 9 18.9687 9 18.5122V5.48777C9 5.03125 9 4.80087 8.96191 4.60938C8.8041 3.81599 8.18356 3.19624 7.39018 3.03843C7.19698 3 6.96465 3 6.5 3C6.03535 3 5.80257 3 5.60938 3.03843C4.81599 3.19624 4.19624 3.81599 4.03843 4.60938C4 4.80257 4 5.03534 4 5.5Z"
         stroke="#000000"
         stroke-width="2"
         stroke-linecap="round"
         stroke-linejoin="round"
         id="path2"
         style="fill:none;fill-opacity:1;stroke:#ffffff;stroke-opacity:1" />
    </g>
  </g>
</svg>
